<svg xmlns="http://www.w3.org/2000/svg" xmlns:xlink="http://www.w3.org/1999/xlink" version="1.1" x="0px" y="0px" viewBox="0 0 144.154 233.19125" enable-background="new 0 0 144.154 186.553" xml:space="preserve"><g><path d="M112.307,72.503c-0.01-0.215-0.029-0.43-0.044-0.64c-0.024-0.43-0.054-0.854-0.093-1.279   c-0.029-0.249-0.059-0.493-0.088-0.742c-0.044-0.386-0.088-0.767-0.142-1.147c-0.044-0.264-0.078-0.518-0.127-0.771   c-0.059-0.371-0.127-0.737-0.195-1.104c-0.049-0.254-0.103-0.513-0.156-0.767c-0.078-0.361-0.161-0.718-0.249-1.079   c-0.063-0.249-0.122-0.503-0.19-0.747c-0.093-0.366-0.2-0.723-0.308-1.084c-0.068-0.234-0.137-0.474-0.21-0.703   c-0.122-0.386-0.254-0.767-0.391-1.143c-0.068-0.2-0.137-0.405-0.205-0.61c-0.195-0.518-0.396-1.035-0.61-1.548   c-0.024-0.049-0.044-0.103-0.063-0.156c-0.239-0.562-0.493-1.113-0.752-1.66c-0.088-0.186-0.19-0.376-0.283-0.566   c-0.181-0.352-0.356-0.708-0.542-1.06c-0.117-0.215-0.239-0.43-0.366-0.649c-0.176-0.308-0.347-0.62-0.532-0.928   c-0.132-0.225-0.273-0.449-0.415-0.669c-0.181-0.293-0.361-0.586-0.557-0.869c-0.142-0.225-0.293-0.444-0.444-0.664   c-0.195-0.283-0.396-0.557-0.591-0.835c-0.156-0.215-0.317-0.43-0.479-0.64c-0.205-0.273-0.425-0.542-0.64-0.815   c-0.161-0.2-0.322-0.405-0.488-0.601c-0.234-0.283-0.474-0.552-0.713-0.83c-0.161-0.176-0.317-0.361-0.474-0.532   c-0.308-0.337-0.625-0.669-0.947-0.991c-0.122-0.122-0.234-0.249-0.356-0.371c-0.4-0.396-0.806-0.786-1.226-1.162   c-0.171-0.161-0.356-0.317-0.532-0.474c-0.273-0.239-0.547-0.479-0.825-0.713c-0.205-0.171-0.41-0.337-0.62-0.503   c-0.259-0.21-0.522-0.42-0.791-0.62c-0.225-0.166-0.444-0.332-0.669-0.493c-0.22-0.161-0.435-0.317-0.654-0.469   c-0.02-0.015-0.039-0.024-0.054-0.039c-0.034-0.02-0.059-0.039-0.093-0.059c-0.229-0.161-0.464-0.317-0.698-0.474   c-0.273-0.181-0.547-0.352-0.82-0.522c-0.239-0.151-0.479-0.303-0.728-0.444c0-0.005,0-0.005-0.005-0.01   c-0.034-0.02-0.068-0.044-0.107-0.063c-0.244-0.146-0.488-0.278-0.737-0.42c-0.239-0.137-0.483-0.273-0.728-0.405   c-0.303-0.161-0.601-0.312-0.903-0.464c-0.098-0.049-0.195-0.103-0.288-0.146c-0.146-0.073-0.288-0.146-0.435-0.215   c-0.361-0.171-0.728-0.332-1.104-0.498c-0.234-0.103-0.469-0.21-0.718-0.312c-0.063-0.029-0.142-0.054-0.21-0.083   c-0.122-0.054-0.249-0.098-0.371-0.146c-0.308-0.122-0.61-0.249-0.918-0.361c-0.244-0.088-0.483-0.171-0.728-0.254   c-0.303-0.103-0.61-0.215-0.913-0.312c-0.029-0.01-0.073-0.02-0.103-0.029c-0.264-0.088-0.537-0.161-0.811-0.239   c-0.322-0.098-0.645-0.19-0.972-0.278c-0.269-0.073-0.542-0.137-0.811-0.205c-0.122-0.029-0.244-0.059-0.366-0.088   c-0.215-0.049-0.425-0.098-0.64-0.142c-0.288-0.063-0.576-0.122-0.864-0.176c-0.156-0.029-0.303-0.068-0.459-0.093   c-0.005,0.005-0.005,0.005-0.005,0.005c-0.239-0.039-0.479-0.083-0.713-0.122c-0.073-0.015-0.151-0.029-0.225-0.039   c-0.889-0.142-1.792-0.239-2.7-0.317c-0.22-0.02-0.435-0.034-0.649-0.049c-0.923-0.063-1.851-0.112-2.793-0.112   c-21.909,0-39.678,17.764-39.678,39.683c0,1.04,0.039,2.085,0.098,3.13c0.02,0.303,0.049,0.605,0.068,0.913   c0.059,0.786,0.132,1.577,0.225,2.363c0.039,0.288,0.063,0.576,0.098,0.864c0.137,1.035,0.293,2.07,0.479,3.101   c0.029,0.146,0.059,0.288,0.088,0.435c0.171,0.903,0.356,1.797,0.562,2.7c0.073,0.322,0.156,0.645,0.229,0.967   c0.19,0.776,0.396,1.553,0.605,2.324c0.078,0.283,0.151,0.562,0.229,0.84c0.293,1.006,0.601,2.011,0.933,3.013   c0.078,0.248,0.171,0.498,0.254,0.746c0.264,0.771,0.537,1.543,0.82,2.312c0.127,0.352,0.259,0.703,0.391,1.055   c0.283,0.723,0.571,1.445,0.864,2.168c0.117,0.293,0.234,0.576,0.356,0.869c0.4,0.947,0.811,1.885,1.23,2.822   c0.156,0.342,0.317,0.674,0.479,1.016c0.293,0.635,0.591,1.26,0.898,1.895c0.195,0.391,0.386,0.781,0.581,1.172   c0.312,0.625,0.63,1.24,0.952,1.846c0.171,0.342,0.337,0.674,0.518,1.006c0.41,0.771,0.84,1.553,1.26,2.314l0.005-0.01   c1.338,2.402,2.725,4.727,4.136,6.973c0.083,0.127,0.166,0.244,0.244,0.371c0.562,0.889,1.128,1.758,1.699,2.617   c0.166,0.254,0.332,0.498,0.498,0.752c0.498,0.752,1.006,1.484,1.504,2.207c0.19,0.273,0.376,0.547,0.566,0.82   c0.483,0.684,0.962,1.357,1.436,2.021c0.195,0.273,0.391,0.537,0.586,0.811c0.474,0.654,0.947,1.289,1.416,1.914   c0.181,0.244,0.366,0.498,0.552,0.742c0.488,0.645,0.972,1.27,1.445,1.885c0.156,0.205,0.312,0.4,0.459,0.596   c0.527,0.674,1.045,1.328,1.558,1.963c0.093,0.117,0.195,0.244,0.288,0.371c1.846,2.285,3.56,4.316,5.063,6.035   c0.093,0.107,0.176,0.205,0.269,0.303c0.396,0.459,0.776,0.889,1.143,1.299c0.122,0.127,0.225,0.254,0.342,0.381   c0.317,0.352,0.62,0.693,0.913,1.006c0.117,0.137,0.234,0.254,0.347,0.371c0.259,0.293,0.503,0.557,0.737,0.801   c0.103,0.117,0.205,0.225,0.303,0.332c0.22,0.225,0.415,0.439,0.601,0.635c0.083,0.078,0.156,0.166,0.234,0.244   c0.171,0.176,0.312,0.332,0.449,0.469c0.059,0.059,0.117,0.117,0.166,0.166c0.142,0.146,0.239,0.244,0.322,0.332   c0.02,0.02,0.034,0.039,0.054,0.049c0.083,0.088,0.127,0.137,0.127,0.137s39.683-38.086,39.683-76.462   C112.356,73.788,112.337,73.143,112.307,72.503z M72.674,105.958c-0.913,0-1.816-0.049-2.715-0.127   c-0.098-0.01-0.195-0.02-0.293-0.029c-0.859-0.078-1.699-0.195-2.534-0.342c-0.122-0.029-0.249-0.049-0.366-0.068   c-0.825-0.156-1.65-0.352-2.456-0.566c-0.103-0.029-0.195-0.059-0.298-0.088c-0.83-0.234-1.65-0.508-2.451-0.811   c-0.039-0.01-0.073-0.029-0.107-0.039c-3.442-1.318-6.597-3.213-9.336-5.576c-0.234-0.205-0.479-0.41-0.708-0.615v-0.01   c-0.391-0.35-0.767-0.715-1.138-1.092c-0.034-0.033-0.068-0.072-0.107-0.107c-0.322-0.336-0.645-0.678-0.957-1.025   c-0.073-0.082-0.137-0.16-0.21-0.244c-0.273-0.307-0.542-0.619-0.806-0.941c-0.088-0.107-0.171-0.221-0.259-0.332   c-0.229-0.298-0.464-0.596-0.688-0.899c-0.098-0.137-0.195-0.273-0.288-0.405c-0.205-0.288-0.41-0.581-0.601-0.879   c-0.098-0.151-0.2-0.303-0.293-0.459c-0.186-0.283-0.361-0.571-0.532-0.864c-0.103-0.166-0.195-0.337-0.293-0.503   c-0.161-0.288-0.317-0.576-0.474-0.864c-0.093-0.181-0.186-0.366-0.278-0.547c-0.142-0.283-0.283-0.576-0.415-0.864   c-0.093-0.19-0.176-0.386-0.264-0.581c-0.127-0.283-0.244-0.571-0.361-0.864c-0.083-0.2-0.166-0.405-0.244-0.61   c-0.107-0.293-0.215-0.581-0.312-0.879c-0.073-0.21-0.146-0.42-0.215-0.635c-0.093-0.293-0.181-0.591-0.269-0.884   c-0.063-0.22-0.132-0.435-0.186-0.659c-0.083-0.298-0.151-0.601-0.22-0.903c-0.054-0.22-0.107-0.439-0.156-0.669   c-0.063-0.303-0.117-0.615-0.176-0.928c-0.039-0.225-0.083-0.444-0.122-0.669c-0.049-0.322-0.088-0.654-0.132-0.981   c-0.024-0.215-0.059-0.43-0.078-0.64c-0.039-0.366-0.063-0.737-0.088-1.104c-0.015-0.181-0.029-0.361-0.044-0.547   c-0.029-0.552-0.044-1.108-0.044-1.67c0-17.402,14.111-31.514,31.514-31.514c0.571,0,1.138,0.029,1.694,0.059   c0.962,0.049,1.904,0.132,2.837,0.269c0.015,0,0.029,0.005,0.039,0.005s0.02,0.005,0.034,0.005   c0.903,0.132,1.792,0.312,2.666,0.518c0.205,0.049,0.405,0.103,0.605,0.151c0.806,0.21,1.597,0.439,2.373,0.708   c0.083,0.029,0.176,0.059,0.264,0.088c0.005,0,0.005,0,0.005,0c0.85,0.298,1.689,0.645,2.51,1.016   c0.181,0.083,0.356,0.176,0.532,0.259c0.664,0.317,1.309,0.654,1.943,1.011c0.181,0.103,0.356,0.2,0.527,0.303   c0.747,0.439,1.47,0.903,2.168,1.401c0.078,0.054,0.161,0.107,0.234,0.166c0.718,0.518,1.411,1.064,2.085,1.641   c0.078,0.068,0.156,0.132,0.229,0.2c0.659,0.581,1.304,1.187,1.909,1.816c0.073,0.078,0.146,0.156,0.22,0.234   c0.605,0.63,1.177,1.289,1.724,1.973c0.068,0.088,0.137,0.171,0.2,0.259c0.547,0.693,1.06,1.401,1.543,2.134   c0.059,0.088,0.112,0.181,0.171,0.273c0.479,0.742,0.928,1.499,1.343,2.28c0.049,0.093,0.093,0.186,0.142,0.278   c0.405,0.791,0.791,1.602,1.128,2.427c0.044,0.088,0.073,0.181,0.112,0.269c0.342,0.84,0.645,1.699,0.913,2.578   c0.02,0.078,0.044,0.156,0.068,0.234c0.264,0.894,0.493,1.802,0.679,2.729c0.015,0.059,0.02,0.122,0.039,0.186   c0.181,0.947,0.327,1.909,0.425,2.881c0,0.039,0,0.073,0.005,0.112c0.098,1.006,0.151,2.021,0.151,3.052   C104.192,91.844,90.081,105.958,72.674,105.958z"/><path d="M88.094,59.256l-1.211-0.806c-1.167-0.776-2.935-0.176-3.95,1.348L69.314,80.277l-7.446-9.712   c-0.718-0.938-2.207-1.006-3.32-0.151l-1.152,0.884c-1.113,0.854-1.436,2.305-0.718,3.242l8.809,11.489l4.204,5.483l3.828-5.757   l14.858-22.334C89.387,61.898,89.26,60.033,88.094,59.256z"/></g></svg>